<?xml version="1.0" standalone="no"?>
<!DOCTYPE svg PUBLIC "-//W3C//DTD SVG 20010904//EN"
        "http://www.w3.org/TR/2001/REC-SVG-20010904/DTD/svg10.dtd">
<svg version="1.0" xmlns="http://www.w3.org/2000/svg"
     width="16" height="16" viewBox="0 0 80 80"
     preserveAspectRatio="xMidYMid meet">

    <g transform="translate(0.000000,80.000000) scale(0.100000,-0.100000)"
       fill="#000000" stroke="none">
        <path d="M312 758 c-7 -7 -12 -22 -12 -33 0 -45 -57 -72 -101 -49 -33 17 -43
13 -86 -34 -23 -25 -22 -33 5 -64 13 -15 12 -21 -8 -53 -15 -24 -29 -35 -46
-35 -27 0 -38 -26 -32 -81 2 -27 8 -34 34 -41 49 -12 68 -68 38 -113 -16 -24
-15 -26 16 -55 37 -34 47 -36 77 -15 20 14 26 14 58 1 26 -11 37 -23 41 -45 9
-43 24 -52 75 -43 38 7 45 11 49 37 4 21 16 36 45 52 22 12 47 23 56 23 15 0
39 -38 39 -61 0 -5 26 -34 58 -64 38 -36 66 -55 83 -55 27 0 79 46 79 71 0 23
-122 139 -147 139 -11 0 -26 7 -33 16 -22 25 20 101 62 112 30 7 33 12 36 51
4 49 -7 66 -46 74 -38 8 -61 60 -38 86 24 26 20 43 -19 81 l-34 33 -34 -18
c-31 -16 -35 -16 -64 -2 -18 10 -33 27 -38 44 -3 15 -11 34 -17 40 -13 16 -80
17 -96 1z m138 -168 c58 -30 93 -81 98 -145 6 -71 -2 -97 -40 -140 -43 -50
-77 -65 -145 -65 -73 0 -118 23 -157 80 -62 91 -29 222 67 269 54 27 126 27
177 1z"/>
        <path d="M390 465 c-30 -30 -58 -55 -63 -55 -4 0 -18 9 -30 20 -25 24 -45 23
-61 -2 -9 -15 -3 -25 34 -63 24 -25 49 -45 55 -45 6 0 46 36 90 80 67 68 78
83 69 98 -19 30 -38 24 -94 -33z"/>
    </g>
</svg>
