<?xml version="1.0" standalone="no"?>
<!DOCTYPE svg PUBLIC "-//W3C//DTD SVG 20010904//EN"
 "http://www.w3.org/TR/2001/REC-SVG-20010904/DTD/svg10.dtd">
<svg version="1.0" xmlns="http://www.w3.org/2000/svg"
 width="1024.000000pt" height="1024.000000pt" viewBox="0 0 1024.000000 1024.000000"
 preserveAspectRatio="xMidYMid meet">

<g transform="translate(0.000000,1024.000000) scale(0.100000,-0.100000)"
fill="#000000" stroke="none">
<path d="M4438 8043 c56 -2 148 -2 205 0 56 1 10 3 -103 3 -113 0 -159 -2
-102 -3z"/>
<path d="M4222 8021 c-58 -20 -116 -62 -140 -101 -9 -16 -4 -13 12 8 37 43 99
79 171 96 33 8 49 15 35 15 -14 0 -49 -8 -78 -18z"/>
<path d="M4773 8033 c9 -2 23 -2 30 0 6 3 -1 5 -18 5 -16 0 -22 -2 -12 -5z"/>
<path d="M4865 8006 c28 -12 66 -36 85 -52 27 -22 30 -23 15 -5 -23 27 -113
81 -135 81 -8 0 8 -11 35 -24z"/>
<path d="M4997 7885 c9 -19 18 -33 21 -31 4 5 -26 66 -33 66 -3 0 3 -16 12
-35z"/>
<path d="M4050 7865 c-13 -34 -24 -81 -18 -75 8 8 37 100 32 100 -2 0 -9 -11
-14 -25z"/>
<path d="M5021 7824 c0 -11 3 -14 6 -6 3 7 2 16 -1 19 -3 4 -6 -2 -5 -13z"/>
<path d="M5031 7784 c0 -11 3 -14 6 -6 3 7 2 16 -1 19 -3 4 -6 -2 -5 -13z"/>
<path d="M4022 7760 c0 -14 2 -19 5 -12 2 6 2 18 0 25 -3 6 -5 1 -5 -13z"/>
<path d="M5042 7740 c0 -14 2 -19 5 -12 2 6 2 18 0 25 -3 6 -5 1 -5 -13z"/>
<path d="M4012 7705 c0 -16 2 -22 5 -12 2 9 2 23 0 30 -3 6 -5 -1 -5 -18z"/>
<path d="M5052 7685 c0 -16 2 -22 5 -12 2 9 2 23 0 30 -3 6 -5 -1 -5 -18z"/>
<path d="M4001 7644 c0 -11 3 -14 6 -6 3 7 2 16 -1 19 -3 4 -6 -2 -5 -13z"/>
<path d="M5062 7630 c0 -14 2 -19 5 -12 2 6 2 18 0 25 -3 6 -5 1 -5 -13z"/>
<path d="M3992 7600 c0 -14 2 -19 5 -12 2 6 2 18 0 25 -3 6 -5 1 -5 -13z"/>
<path d="M5072 7580 c0 -14 2 -19 5 -12 2 6 2 18 0 25 -3 6 -5 1 -5 -13z"/>
<path d="M3976 7539 c-8 -42 0 -50 9 -9 4 17 5 34 2 36 -2 3 -7 -10 -11 -27z"/>
<path d="M5081 7534 c0 -11 3 -14 6 -6 3 7 2 16 -1 19 -3 4 -6 -2 -5 -13z"/>
<path d="M5091 7500 c0 -8 4 -22 9 -30 12 -18 12 -2 0 25 -6 13 -9 15 -9 5z"/>
<path d="M3948 7460 c-9 -16 -34 -38 -55 -49 -21 -11 -33 -20 -28 -21 29 -1
118 80 104 95 -3 2 -12 -9 -21 -25z"/>
<path d="M3051 7451 c-8 -5 5 -7 35 -4 68 6 77 11 24 12 -25 0 -51 -3 -59 -8z"/>
<path d="M5968 7453 c12 -2 30 -2 40 0 9 3 -1 5 -23 4 -22 0 -30 -2 -17 -4z"/>
<path d="M5142 7418 c16 -16 36 -28 46 -27 12 0 9 3 -8 10 -14 6 -34 18 -45
27 -12 9 -8 5 7 -10z"/>
<path d="M5842 7413 c-34 -20 -77 -50 -95 -66 -17 -15 -2 -8 34 17 36 25 86
55 110 66 24 11 37 20 29 20 -9 0 -44 -17 -78 -37z"/>
<path d="M6055 7440 c27 -12 43 -12 25 0 -8 5 -22 9 -30 9 -10 0 -8 -3 5 -9z"/>
<path d="M2980 7419 c-19 -12 -130 -116 -245 -233 -172 -172 -179 -180 -40
-45 224 219 270 261 308 281 18 9 28 17 22 18 -5 0 -26 -10 -45 -21z"/>
<path d="M3246 7412 c27 -16 87 -56 132 -90 97 -74 110 -76 18 -3 -69 55 -173
121 -190 121 -6 0 12 -13 40 -28z"/>
<path d="M6120 7414 c14 -10 124 -115 245 -233 l220 -216 -213 216 c-117 118
-228 223 -245 233 -30 16 -31 16 -7 0z"/>
<path d="M3780 7370 c-18 -12 -2 -12 25 0 13 6 15 9 5 9 -8 0 -22 -4 -30 -9z"/>
<path d="M3700 7340 c-8 -5 -10 -10 -5 -10 6 0 17 5 25 10 8 5 11 10 5 10 -5
0 -17 -5 -25 -10z"/>
<path d="M5341 7346 c10 -9 109 -56 109 -51 0 5 -95 55 -106 55 -4 0 -5 -2 -3
-4z"/>
<path d="M3648 7314 c-38 -20 -36 -28 2 -9 17 9 30 18 30 20 0 7 -1 6 -32 -11z"/>
<path d="M5651 7279 c-30 -21 -51 -39 -47 -39 10 0 93 58 101 70 9 14 6 13
-54 -31z"/>
<path d="M3579 7269 l-24 -20 28 17 c15 9 27 18 27 20 0 8 -8 4 -31 -17z"/>
<path d="M5475 7275 c11 -9 34 -23 50 -31 28 -14 29 -14 10 1 -11 9 -33 23
-50 31 -28 14 -29 14 -10 -1z"/>
<path d="M3484 7246 c11 -9 27 -16 35 -15 14 0 14 1 1 6 -8 3 -24 10 -35 15
-20 9 -20 9 -1 -6z"/>
<path d="M2495 6929 c-9 -17 -15 -34 -13 -39 2 -5 11 9 20 30 20 47 15 53 -7
9z"/>
<path d="M6591 6938 c6 -12 15 -44 19 -72 7 -47 8 -48 9 -13 1 36 -21 107 -34
107 -3 0 0 -10 6 -22z"/>
<path d="M4443 6893 c48 -2 126 -2 175 0 48 1 8 3 -88 3 -96 0 -136 -2 -87 -3z"/>
<path d="M4245 6875 c-67 -17 -36 -18 40 -1 33 8 49 14 35 14 -14 0 -47 -6
-75 -13z"/>
<path d="M4723 6883 c9 -2 25 -2 35 0 9 3 1 5 -18 5 -19 0 -27 -2 -17 -5z"/>
<path d="M4810 6870 c14 -4 34 -8 45 -8 16 0 15 2 -5 8 -14 4 -34 8 -45 8 -16
0 -15 -2 5 -8z"/>
<path d="M4092 6833 c-40 -14 -72 -27 -69 -29 2 -2 41 9 88 25 46 16 77 29 69
29 -8 0 -48 -11 -88 -25z"/>
<path d="M4920 6844 c25 -7 50 -13 55 -13 18 1 -59 27 -80 28 -11 0 0 -7 25
-15z"/>
<path d="M2480 6809 c0 -26 74 -131 130 -184 78 -75 130 -143 131 -173 0 -15
3 -21 6 -14 12 29 -13 67 -112 173 -57 61 -116 134 -130 162 -14 28 -25 44
-25 36z"/>
<path d="M5040 6808 c220 -102 299 -152 440 -273 153 -132 323 -367 400 -553
18 -45 35 -80 38 -78 2 2 -13 43 -33 90 -41 95 -133 248 -203 341 -71 92 -218
233 -323 307 -89 64 -265 159 -319 172 l-25 6 25 -12z"/>
<path d="M6589 6778 c-7 -18 -66 -90 -131 -161 -109 -117 -118 -130 -117 -165
l2 -37 6 41 c6 35 24 60 116 158 99 106 154 180 142 192 -2 3 -10 -10 -18 -28z"/>
<path d="M3926 6764 c-37 -19 -66 -37 -63 -40 2 -3 38 13 78 35 91 50 80 53
-15 5z"/>
<path d="M3776 6676 c-156 -105 -302 -252 -413 -416 -51 -76 -97 -160 -88
-160 2 0 14 19 26 43 93 182 321 428 502 539 42 27 55 38 43 38 -3 0 -34 -20
-70 -44z"/>
<path d="M6351 6409 c-1 -3 25 -62 58 -130 32 -68 66 -146 76 -174 10 -27 22
-54 27 -60 18 -19 -41 125 -101 247 -32 68 -60 120 -60 117z"/>
<path d="M2667 6274 c-31 -63 -57 -118 -56 -122 0 -4 27 46 60 112 33 65 59
120 57 122 -2 2 -30 -48 -61 -112z"/>
<path d="M5248 6173 c12 -2 32 -2 45 0 12 2 2 4 -23 4 -25 0 -35 -2 -22 -4z"/>
<path d="M5155 6150 c-26 -13 -200 -179 -475 -455 -239 -239 -439 -435 -444
-435 -5 0 -75 65 -156 144 -144 141 -200 186 -230 186 -8 0 3 -9 25 -19 23
-10 107 -84 195 -169 85 -83 159 -151 165 -152 5 0 210 200 455 444 378 377
452 446 490 459 25 8 38 16 30 16 -8 1 -33 -8 -55 -19z"/>
<path d="M5328 6163 c7 -3 16 -2 19 1 4 3 -2 6 -13 5 -11 0 -14 -3 -6 -6z"/>
<path d="M5406 6128 c60 -41 104 -110 114 -180 7 -50 8 -50 9 -13 1 49 -36
130 -75 166 -36 32 -76 59 -87 59 -5 0 12 -15 39 -32z"/>
<path d="M2596 6125 c-9 -26 -7 -32 5 -12 6 10 9 21 6 23 -2 3 -7 -2 -11 -11z"/>
<path d="M2576 6075 c-9 -26 -7 -32 5 -12 6 10 9 21 6 23 -2 3 -7 -2 -11 -11z"/>
<path d="M3255 6079 c-4 -6 -5 -12 -2 -15 2 -3 7 2 10 11 7 17 1 20 -8 4z"/>
<path d="M2544 6019 c-10 -12 -32 -28 -49 -35 -16 -7 -24 -13 -17 -14 22 0 71
29 82 50 14 26 8 25 -16 -1z"/>
<path d="M6529 6016 c13 -16 51 -41 51 -33 0 2 -15 14 -32 27 -21 15 -28 17
-19 6z"/>
<path d="M3196 5943 c-14 -38 -26 -73 -25 -78 0 -6 13 23 29 64 16 41 28 76
26 78 -2 2 -16 -27 -30 -64z"/>
<path d="M2428 5963 c6 -2 18 -2 25 0 6 3 1 5 -13 5 -14 0 -19 -2 -12 -5z"/>
<path d="M6640 5960 c14 -4 36 -8 50 -8 22 0 22 1 -5 8 -16 4 -39 8 -50 8 -16
0 -15 -2 5 -8z"/>
<path d="M2388 5953 c7 -3 16 -2 19 1 4 3 -2 6 -13 5 -11 0 -14 -3 -6 -6z"/>
<path d="M2328 5943 c6 -2 18 -2 25 0 6 3 1 5 -13 5 -14 0 -19 -2 -12 -5z"/>
<path d="M6733 5943 c9 -2 23 -2 30 0 6 3 -1 5 -18 5 -16 0 -22 -2 -12 -5z"/>
<path d="M2209 5916 c-68 -27 -105 -55 -136 -101 -34 -51 -28 -53 10 -3 42 55
85 83 161 108 34 10 52 19 41 19 -11 0 -45 -10 -76 -23z"/>
<path d="M6788 5933 c6 -2 18 -2 25 0 6 3 1 5 -13 5 -14 0 -19 -2 -12 -5z"/>
<path d="M6838 5923 c7 -3 16 -2 19 1 4 3 -2 6 -13 5 -11 0 -14 -3 -6 -6z"/>
<path d="M6871 5917 c17 -14 98 -54 94 -46 -7 10 -79 49 -91 49 -4 0 -5 -1 -3
-3z"/>
<path d="M5502 5856 c-9 -25 -169 -191 -560 -583 -301 -301 -386 -388 -187
-191 198 196 444 439 547 540 171 168 225 233 216 259 -2 6 -9 -5 -16 -25z"/>
<path d="M5927 5870 c3 -14 12 -41 20 -60 11 -30 12 -31 8 -6 -4 16 -13 43
-20 60 -11 23 -13 25 -8 6z"/>
<path d="M6990 5843 c0 -6 6 -16 14 -22 8 -6 19 -25 26 -42 7 -16 15 -28 17
-25 3 2 -1 15 -8 28 -18 33 -49 72 -49 61z"/>
<path d="M3145 5790 c-4 -17 -5 -34 -2 -36 2 -3 7 10 11 27 8 42 0 50 -9 9z"/>
<path d="M5962 5755 c0 -11 4 -33 8 -50 7 -27 8 -27 8 -5 0 14 -4 36 -8 50 -6
20 -8 21 -8 5z"/>
<path d="M2036 5745 c-3 -9 -6 -24 -5 -33 0 -9 5 -4 10 12 9 32 6 48 -5 21z"/>
<path d="M3121 5684 c-6 -32 -11 -69 -10 -83 0 -14 7 10 15 53 16 91 13 115
-5 30z"/>
<path d="M7051 5724 c0 -11 3 -14 6 -6 3 7 2 16 -1 19 -3 4 -6 -2 -5 -13z"/>
<path d="M7062 5675 c0 -16 2 -22 5 -12 2 9 2 23 0 30 -3 6 -5 -1 -5 -18z"/>
<path d="M2023 5655 c0 -22 2 -30 4 -17 2 12 2 30 0 40 -3 9 -5 -1 -4 -23z"/>
<path d="M5982 5645 c0 -16 2 -22 5 -12 2 9 2 23 0 30 -3 6 -5 -1 -5 -18z"/>
<path d="M7073 5595 c0 -27 2 -38 4 -22 2 15 2 37 0 50 -2 12 -4 0 -4 -28z"/>
<path d="M5994 5470 c0 -80 2 -112 3 -72 2 39 2 105 0 145 -1 39 -3 7 -3 -73z"/>
<path d="M2014 5435 c0 -93 2 -133 3 -88 2 45 2 122 0 170 -1 48 -3 12 -3 -82z"/>
<path d="M3763 5593 c15 -2 37 -2 50 0 12 2 0 4 -28 4 -27 0 -38 -2 -22 -4z"/>
<path d="M3649 5556 c-19 -13 -48 -44 -64 -68 -24 -35 -29 -55 -31 -108 l-2
-65 7 66 c5 41 15 77 28 95 25 34 70 77 98 92 11 6 15 12 10 12 -6 0 -26 -11
-46 -24z"/>
<path d="M3104 5440 c0 -74 1 -105 3 -67 2 37 2 97 0 135 -2 37 -3 6 -3 -68z"/>
<path d="M7084 5405 c0 -66 1 -92 3 -57 2 34 2 88 0 120 -2 31 -3 3 -3 -63z"/>
<path d="M5983 5285 c0 -22 2 -30 4 -17 2 12 2 30 0 40 -3 9 -5 -1 -4 -23z"/>
<path d="M3113 5265 c0 -22 2 -30 4 -17 2 12 2 30 0 40 -3 9 -5 -1 -4 -23z"/>
<path d="M3581 5258 c6 -13 129 -142 273 -287 254 -256 308 -301 361 -300 11
0 -2 7 -30 16 -45 13 -72 37 -255 221 -113 114 -241 244 -283 290 -43 46 -73
73 -66 60z"/>
<path d="M7073 5220 c0 -25 2 -35 4 -22 2 12 2 32 0 45 -2 12 -4 2 -4 -23z"/>
<path d="M2023 5210 c0 -25 2 -35 4 -22 2 12 2 32 0 45 -2 12 -4 2 -4 -23z"/>
<path d="M5966 5194 c-3 -26 -4 -49 -2 -52 3 -2 8 17 11 43 4 25 5 48 3 51 -3
2 -8 -17 -12 -42z"/>
<path d="M3122 5200 c0 -14 2 -19 5 -12 2 6 2 18 0 25 -3 6 -5 1 -5 -13z"/>
<path d="M3132 5150 c0 -14 2 -19 5 -12 2 6 2 18 0 25 -3 6 -5 1 -5 -13z"/>
<path d="M7062 5140 c0 -14 2 -19 5 -12 2 6 2 18 0 25 -3 6 -5 1 -5 -13z"/>
<path d="M2036 5115 c8 -52 26 -86 72 -131 37 -37 104 -74 132 -73 8 0 -3 7
-24 15 -81 30 -148 100 -172 181 -13 45 -13 46 -8 8z"/>
<path d="M5951 5114 c0 -11 3 -14 6 -6 3 7 2 16 -1 19 -3 4 -6 -2 -5 -13z"/>
<path d="M3140 5112 c-1 -34 87 -289 96 -279 2 2 -3 21 -13 43 -9 21 -31 86
-49 144 -18 58 -33 99 -34 92z"/>
<path d="M5931 5044 c0 -11 3 -14 6 -6 3 7 2 16 -1 19 -3 4 -6 -2 -5 -13z"/>
<path d="M7005 5017 c-18 -24 -52 -52 -84 -69 -29 -15 -48 -28 -42 -28 39 0
161 100 161 132 0 13 -3 10 -35 -35z"/>
<path d="M5907 4978 c-9 -23 -15 -43 -13 -45 2 -2 11 15 20 38 9 23 15 43 13
45 -2 2 -11 -15 -20 -38z"/>
<path d="M6838 4913 c7 -3 16 -2 19 1 4 3 -2 6 -13 5 -11 0 -14 -3 -6 -6z"/>
<path d="M2305 4894 c28 -7 59 -13 70 -13 11 0 -5 7 -35 14 -72 18 -100 17
-35 -1z"/>
<path d="M6760 4900 c-34 -7 -34 -7 -5 -8 17 0 39 3 50 8 24 10 4 10 -45 0z"/>
<path d="M5842 4835 c-17 -36 -30 -65 -27 -65 7 0 67 121 63 126 -2 2 -18 -26
-36 -61z"/>
<path d="M6617 4870 c-61 -19 -92 -41 -109 -75 -7 -15 -4 -13 14 6 37 41 51
48 129 69 41 10 63 19 49 19 -14 0 -51 -8 -83 -19z"/>
<path d="M2408 4873 c7 -3 16 -2 19 1 4 3 -2 6 -13 5 -11 0 -14 -3 -6 -6z"/>
<path d="M2448 4863 c7 -3 16 -2 19 1 4 3 -2 6 -13 5 -11 0 -14 -3 -6 -6z"/>
<path d="M2530 4824 c14 -17 38 -63 54 -102 15 -40 30 -71 32 -69 10 10 -70
178 -89 189 -19 10 -19 8 3 -18z"/>
<path d="M3284 4733 c58 -114 215 -303 320 -386 22 -18 -10 18 -70 78 -107
106 -198 225 -243 313 -12 23 -24 42 -26 42 -3 0 6 -21 19 -47z"/>
<path d="M6482 4745 c-17 -37 -14 -45 4 -12 9 16 14 31 11 33 -2 2 -9 -7 -15
-21z"/>
<path d="M5770 4708 c-18 -29 -25 -46 -18 -38 18 19 61 90 55 90 -3 0 -20 -24
-37 -52z"/>
<path d="M4345 4699 c-16 -10 -25 -19 -19 -19 7 0 22 9 35 20 30 24 23 24 -16
-1z"/>
<path d="M6432 4628 c-17 -39 -30 -73 -29 -75 2 -2 19 29 37 67 17 39 30 73
28 75 -2 2 -18 -28 -36 -67z"/>
<path d="M4278 4673 c6 -2 18 -2 25 0 6 3 1 5 -13 5 -14 0 -19 -2 -12 -5z"/>
<path d="M5675 4578 c-33 -40 -82 -98 -110 -128 -27 -30 -35 -41 -16 -25 43
39 199 225 189 225 -2 0 -31 -33 -63 -72z"/>
<path d="M2620 4636 c0 -11 40 -86 45 -86 3 0 -4 19 -16 43 -23 45 -29 54 -29
43z"/>
<path d="M6372 4495 c-12 -25 -20 -45 -17 -45 7 0 47 81 43 86 -3 2 -14 -17
-26 -41z"/>
<path d="M2691 4495 c0 -5 11 -30 24 -55 13 -25 24 -40 24 -35 0 6 -11 30 -24
55 -13 25 -24 41 -24 35z"/>
<path d="M6332 4415 c-17 -37 -14 -45 4 -12 9 16 14 31 11 33 -2 2 -9 -7 -15
-21z"/>
<path d="M5465 4364 c-67 -60 -158 -122 -257 -174 -103 -55 -114 -68 -15 -19
83 42 211 127 272 183 28 25 48 45 45 45 -3 0 -23 -16 -45 -35z"/>
<path d="M2742 4350 c0 -19 2 -27 5 -17 2 9 2 25 0 35 -3 9 -5 1 -5 -18z"/>
<path d="M6306 4355 c-9 -26 -7 -32 5 -12 6 10 9 21 6 23 -2 3 -7 -2 -11 -11z"/>
<path d="M3650 4316 c0 -2 14 -14 30 -26 17 -12 30 -19 30 -16 0 2 -13 14 -30
26 -16 12 -30 19 -30 16z"/>
<path d="M6310 4315 c0 -12 66 -98 97 -125 26 -23 26 -22 -3 10 -17 19 -46 55
-63 79 -17 24 -31 41 -31 36z"/>
<path d="M2650 4214 c-78 -87 -140 -175 -140 -199 0 -5 14 14 30 44 16 30 65
93 108 140 71 78 99 112 90 111 -2 -1 -41 -44 -88 -96z"/>
<path d="M3740 4252 c29 -24 100 -66 100 -59 0 3 -15 14 -33 25 -19 11 -47 27
-63 37 l-29 17 25 -20z"/>
<path d="M3850 4185 c0 -3 30 -18 66 -35 66 -30 95 -39 61 -19 -31 18 -127 59
-127 54z"/>
<path d="M6475 4101 c25 -33 51 -64 57 -68 7 -3 -9 21 -35 55 -26 34 -52 64
-58 68 -6 3 10 -21 36 -55z"/>
<path d="M5045 4114 c-27 -13 -39 -21 -25 -18 29 7 100 43 85 43 -5 0 -32 -12
-60 -25z"/>
<path d="M4010 4112 c8 -5 26 -13 40 -16 17 -5 20 -4 10 2 -8 5 -26 13 -40 16
-17 5 -20 4 -10 -2z"/>
<path d="M4930 4075 c-19 -7 -28 -13 -20 -13 8 0 31 6 50 13 19 7 28 13 20 13
-8 0 -31 -6 -50 -13z"/>
<path d="M4118 4073 c7 -3 16 -2 19 1 4 3 -2 6 -13 5 -11 0 -14 -3 -6 -6z"/>
<path d="M4165 4060 c11 -5 27 -9 35 -9 9 0 8 4 -5 9 -11 5 -27 9 -35 9 -9 0
-8 -4 5 -9z"/>
<path d="M4868 4053 c7 -3 16 -2 19 1 4 3 -2 6 -13 5 -11 0 -14 -3 -6 -6z"/>
<path d="M6668 4053 c12 -2 30 -2 40 0 9 3 -1 5 -23 4 -22 0 -30 -2 -17 -4z"/>
<path d="M4238 4043 c6 -2 18 -2 25 0 6 3 1 5 -13 5 -14 0 -19 -2 -12 -5z"/>
<path d="M4785 4040 c-27 -7 -27 -8 -5 -8 14 0 36 4 50 8 20 6 21 8 5 8 -11 0
-33 -4 -50 -8z"/>
<path d="M6769 4029 c28 -12 91 -65 165 -137 65 -64 113 -108 105 -97 -8 12
-61 66 -119 122 -100 95 -152 133 -182 133 -7 0 7 -10 31 -21z"/>
<path d="M4288 4033 c6 -2 18 -2 25 0 6 3 1 5 -13 5 -14 0 -19 -2 -12 -5z"/>
<path d="M4358 4023 c12 -2 32 -2 45 0 12 2 2 4 -23 4 -25 0 -35 -2 -22 -4z"/>
<path d="M4703 4023 c9 -2 25 -2 35 0 9 3 1 5 -18 5 -19 0 -27 -2 -17 -5z"/>
<path d="M4488 4013 c34 -2 88 -2 120 0 31 2 3 3 -63 3 -66 0 -92 -1 -57 -3z"/>
<path d="M2503 3955 c0 -22 2 -30 4 -17 2 12 2 30 0 40 -3 9 -5 -1 -4 -23z"/>
<path d="M2510 3897 c0 -4 9 -24 19 -45 33 -64 480 -492 514 -492 5 0 -15 18
-44 40 -98 73 -428 399 -459 454 -17 28 -30 47 -30 43z"/>
<path d="M7066 3770 c11 -21 473 -474 488 -479 6 -2 -2 9 -19 25 -16 15 -131
127 -254 248 -123 122 -220 214 -215 206z"/>
<path d="M5651 3717 c2 -1 15 -11 29 -22 l25 -20 -19 23 c-11 12 -24 22 -29
22 -6 0 -8 -1 -6 -3z"/>
<path d="M5559 3668 c-24 -18 -89 -56 -144 -85 -118 -62 -120 -71 -4 -13 83
41 218 130 198 130 -4 0 -26 -15 -50 -32z"/>
<path d="M5710 3678 c0 -4 53 -61 117 -125 64 -65 101 -100 82 -78 -58 67
-199 210 -199 203z"/>
<path d="M3412 3515 c-72 -69 -149 -133 -170 -144 -20 -11 -32 -20 -26 -21 16
0 95 54 134 92 19 19 74 71 122 116 47 45 83 82 80 81 -4 0 -67 -56 -140 -124z"/>
<path d="M3570 3626 c0 -7 170 -99 175 -95 2 2 -37 26 -86 52 -49 26 -89 45
-89 43z"/>
<path d="M5260 3515 c-19 -7 -28 -14 -20 -14 8 0 29 6 45 14 39 17 21 18 -25
0z"/>
<path d="M3795 3510 c11 -5 27 -9 35 -9 9 0 8 4 -5 9 -11 5 -27 9 -35 9 -9 0
-8 -4 5 -9z"/>
<path d="M5190 3490 c-8 -5 -10 -10 -5 -10 6 0 17 5 25 10 8 5 11 10 5 10 -5
0 -17 -5 -25 -10z"/>
<path d="M5137 3469 c-19 -11 -47 -60 -47 -81 1 -7 7 1 14 18 8 17 26 40 41
52 28 23 24 29 -8 11z"/>
<path d="M3951 3445 c9 -11 21 -29 27 -40 6 -11 12 -14 12 -8 0 7 -12 25 -27
41 -16 15 -21 19 -12 7z"/>
<path d="M5931 3384 c0 -11 3 -14 6 -6 3 7 2 16 -1 19 -3 4 -6 -2 -5 -13z"/>
<path d="M3996 3340 c3 -25 10 -61 14 -80 8 -28 8 -25 4 18 -3 29 -10 65 -15
80 -6 20 -7 16 -3 -18z"/>
<path d="M5082 3350 c0 -14 2 -19 5 -12 2 6 2 18 0 25 -3 6 -5 1 -5 -13z"/>
<path d="M3118 3343 c18 -2 45 -2 60 0 15 2 0 4 -33 4 -33 0 -45 -2 -27 -4z"/>
<path d="M5913 3285 c0 -22 2 -30 4 -17 2 12 2 30 0 40 -3 9 -5 -1 -4 -23z"/>
<path d="M5072 3285 c0 -16 2 -22 5 -12 2 9 2 23 0 30 -3 6 -5 -1 -5 -18z"/>
<path d="M7662 3181 c59 -56 129 -126 154 -154 26 -29 41 -43 34 -32 -22 33
-232 245 -265 267 -16 12 18 -25 77 -81z"/>
<path d="M5062 3225 c0 -16 2 -22 5 -12 2 9 2 23 0 30 -3 6 -5 -1 -5 -18z"/>
<path d="M4022 3195 c0 -16 2 -22 5 -12 2 9 2 23 0 30 -3 6 -5 -1 -5 -18z"/>
<path d="M5930 3196 c0 -34 113 -156 533 -572 265 -263 498 -487 517 -497 33
-17 34 -17 10 0 -94 67 -983 954 -1029 1027 -17 28 -31 46 -31 42z"/>
<path d="M5051 3164 c0 -11 3 -14 6 -6 3 7 2 16 -1 19 -3 4 -6 -2 -5 -13z"/>
<path d="M4032 3140 c0 -14 2 -19 5 -12 2 6 2 18 0 25 -3 6 -5 1 -5 -13z"/>
<path d="M5032 3093 c-16 -63 -52 -116 -104 -153 -23 -17 -36 -30 -29 -30 7 0
36 24 65 53 51 50 94 138 84 168 -2 6 -9 -11 -16 -38z"/>
<path d="M4041 3100 c-1 -51 71 -150 130 -180 59 -30 60 -23 2 10 -57 33 -87
69 -114 138 -10 26 -18 40 -18 32z"/>
<path d="M7866 2957 c3 -10 9 -15 12 -12 3 3 0 11 -7 18 -10 9 -11 8 -5 -6z"/>
<path d="M7886 2905 c8 -37 14 -45 14 -19 0 10 -5 26 -10 34 -8 11 -9 7 -4
-15z"/>
<path d="M4845 2900 c-13 -6 -15 -9 -5 -9 8 0 22 4 30 9 18 12 2 12 -25 0z"/>
<path d="M4268 2883 c6 -2 18 -2 25 0 6 3 1 5 -13 5 -14 0 -19 -2 -12 -5z"/>
<path d="M4798 2883 c7 -3 16 -2 19 1 4 3 -2 6 -13 5 -11 0 -14 -3 -6 -6z"/>
<path d="M4323 2873 c9 -2 25 -2 35 0 9 3 1 5 -18 5 -19 0 -27 -2 -17 -5z"/>
<path d="M4723 2873 c9 -2 25 -2 35 0 9 3 1 5 -18 5 -19 0 -27 -2 -17 -5z"/>
<path d="M4468 2863 c39 -2 105 -2 145 0 39 1 7 3 -73 3 -80 0 -112 -2 -72 -3z"/>
<path d="M7903 2810 c0 -30 2 -43 4 -27 2 15 2 39 0 55 -2 15 -4 2 -4 -28z"/>
<path d="M7877 2703 c-34 -94 -74 -142 -338 -398 -85 -83 -165 -159 -179 -168
l-25 -18 24 12 c35 16 342 309 418 399 61 70 128 189 121 211 -2 6 -11 -11
-21 -38z"/>
<path d="M7050 2090 c8 -5 22 -9 30 -9 10 0 8 3 -5 9 -27 12 -43 12 -25 0z"/>
<path d="M7138 2073 c17 -2 47 -2 65 0 17 2 3 4 -33 4 -36 0 -50 -2 -32 -4z"/>
</g>
</svg>
