<?xml version="1.0" standalone="no"?>
<!DOCTYPE svg PUBLIC "-//W3C//DTD SVG 20010904//EN"
        "http://www.w3.org/TR/2001/REC-SVG-20010904/DTD/svg10.dtd">
<svg version="1.0" xmlns="http://www.w3.org/2000/svg"
     width="1024.000000pt" height="1024.000000pt" viewBox="0 0 1024.000000 1024.000000"
     preserveAspectRatio="xMidYMid meet">

    <g transform="translate(0.000000,1024.000000) scale(0.100000,-0.100000)"
       fill="#000000" stroke="none">
        <path d="M0 5120 l0 -5120 5120 0 5120 0 0 5120 0 5120 -5120 0 -5120 0 0
-5120z m5568 3189 c74 -36 87 -67 126 -301 19 -113 39 -215 45 -226 7 -13 40
-30 93 -48 108 -35 234 -87 330 -135 43 -22 86 -39 97 -39 11 0 97 56 193 124
98 70 191 129 216 136 80 24 100 11 336 -215 322 -308 347 -340 332 -421 -4
-19 -61 -115 -131 -222 -74 -110 -125 -197 -125 -211 0 -14 24 -77 54 -140 29
-64 70 -168 91 -231 21 -63 45 -123 55 -134 14 -14 67 -26 226 -52 237 -39
271 -54 312 -134 21 -43 22 -52 22 -376 0 -220 -4 -342 -11 -365 -14 -41 -61
-93 -98 -108 -14 -6 -117 -26 -229 -45 -112 -18 -208 -38 -213 -43 -5 -5 -32
-77 -60 -159 -27 -82 -69 -189 -94 -239 -43 -89 -49 -105 -46 -136 0 -9 56
-90 122 -180 67 -90 125 -174 130 -187 13 -35 11 -78 -7 -120 -18 -45 -482
-514 -530 -537 -83 -39 -138 -15 -419 185 -44 31 -88 59 -97 63 -10 4 -60 -15
-126 -47 -59 -30 -173 -77 -251 -106 -78 -29 -151 -60 -162 -69 -15 -13 -25
-55 -49 -216 -17 -110 -33 -209 -37 -220 -11 -37 -44 -75 -83 -95 -37 -19 -60
-20 -394 -20 -226 0 -365 4 -383 11 -36 13 -89 64 -102 98 -6 14 -24 109 -41
211 -21 125 -36 193 -49 210 -12 17 -50 36 -122 62 -57 20 -171 71 -254 113
-82 41 -155 75 -162 75 -21 0 -145 -114 -298 -275 l-149 -158 -1 -63 c-2 -113
-11 -125 -510 -627 -445 -449 -451 -454 -536 -497 -156 -76 -296 -78 -451 -3
-64 30 -94 56 -249 211 -141 142 -182 189 -207 240 -41 83 -56 160 -49 257 6
94 30 170 81 249 43 68 879 923 945 966 49 33 119 47 149 31 11 -6 29 -11 39
-11 22 0 428 419 436 450 3 11 -18 66 -48 132 -30 62 -74 172 -98 243 -57 166
-56 162 -73 169 -7 3 -96 17 -196 31 -194 28 -241 42 -282 84 -52 54 -54 70
-58 443 l-3 346 30 44 c50 70 84 83 314 116 155 23 208 34 217 47 7 9 33 78
59 153 25 75 69 185 97 244 34 73 49 114 45 130 -4 13 -43 77 -87 143 -45 66
-102 150 -127 188 -38 56 -46 75 -45 112 0 27 8 58 21 77 34 56 496 507 535
523 46 20 99 19 139 -1 18 -9 73 -47 122 -84 129 -96 242 -170 258 -170 8 0
70 25 138 56 68 31 178 74 244 96 66 21 128 46 137 56 12 12 28 81 53 227 20
115 41 218 47 230 14 27 49 64 73 78 28 16 168 23 474 25 251 2 267 1 309 -19z"/>
        <path d="M4949 7225 c-353 -57 -637 -202 -885 -449 -229 -229 -373 -505 -431
-826 -24 -132 -23 -409 1 -545 38 -211 129 -433 257 -625 83 -126 281 -324
409 -409 182 -122 372 -201 583 -243 161 -32 433 -32 594 0 223 45 464 150
633 276 184 137 373 363 475 566 217 433 219 965 5 1406 -78 162 -160 276
-294 410 -224 223 -480 361 -794 425 -129 27 -430 34 -553 14z m1121 -741 c41
-27 220 -207 236 -236 21 -40 17 -97 -9 -140 -35 -57 -1235 -1258 -1273 -1274
-45 -19 -81 -17 -129 5 -27 13 -171 151 -432 412 -342 344 -392 399 -398 432
-14 75 0 102 101 207 53 54 110 106 129 114 41 20 98 20 133 2 15 -8 135 -123
267 -255 171 -172 246 -241 262 -241 22 0 159 136 798 788 193 198 248 230
315 186z"/>
    </g>
</svg>
