<?xml version="1.0" standalone="no"?>
<!DOCTYPE svg PUBLIC "-//W3C//DTD SVG 20010904//EN"
 "http://www.w3.org/TR/2001/REC-SVG-20010904/DTD/svg10.dtd">
<svg version="1.0" xmlns="http://www.w3.org/2000/svg"
 width="1024.000000pt" height="1024.000000pt" viewBox="0 0 1024.000000 1024.000000"
 preserveAspectRatio="xMidYMid meet">

<g transform="translate(0.000000,1024.000000) scale(0.100000,-0.100000)"
fill="#000000" stroke="none">
<path d="M0 5120 l0 -5120 5120 0 5120 0 0 5120 0 5120 -5120 0 -5120 0 0
-5120z m4840 2711 c68 -36 86 -83 119 -310 21 -138 36 -209 46 -221 9 -10 64
-35 123 -55 59 -20 165 -66 236 -103 71 -36 137 -65 146 -65 10 1 78 48 151
104 188 144 214 159 268 159 26 -1 58 -6 73 -13 32 -14 519 -485 559 -540 33
-46 46 -115 31 -165 -7 -21 -64 -103 -131 -187 -67 -84 -121 -159 -121 -171 0
-12 20 -64 45 -115 24 -52 66 -158 92 -237 26 -80 54 -147 63 -152 9 -5 99
-20 200 -35 102 -15 198 -32 215 -39 40 -17 82 -68 94 -114 5 -20 11 -206 13
-412 3 -419 4 -411 -67 -466 -31 -24 -55 -29 -218 -50 -100 -13 -190 -24 -199
-24 -33 0 -54 -35 -97 -160 -24 -69 -65 -171 -92 -226 -27 -56 -49 -112 -49
-125 0 -16 40 -62 130 -153 l129 -131 143 0 c222 0 172 37 769 -560 457 -458
503 -506 535 -570 69 -140 54 -281 -45 -420 -27 -39 -121 -141 -208 -227 -141
-139 -170 -162 -239 -195 -76 -37 -83 -38 -184 -38 -102 0 -108 1 -180 37 -70
35 -110 73 -561 520 -315 312 -496 499 -513 530 -48 85 -58 149 -45 272 l11
109 -118 118 c-65 66 -125 119 -132 119 -8 0 -35 -17 -61 -38 -188 -157 -438
-295 -665 -368 -56 -18 -94 -37 -102 -50 -8 -11 -27 -111 -42 -221 -33 -230
-51 -277 -123 -313 -38 -20 -54 -21 -432 -18 l-392 3 -33 23 c-55 40 -71 87
-102 302 -16 109 -33 207 -39 218 -6 12 -34 28 -63 38 -97 31 -202 75 -312
131 -70 35 -117 53 -130 49 -12 -3 -96 -61 -188 -130 -92 -68 -180 -127 -198
-131 -17 -4 -49 -4 -73 0 -39 6 -61 25 -315 283 -150 152 -282 295 -294 316
-15 29 -19 52 -16 87 5 52 2 47 172 264 68 87 86 117 86 143 0 19 -20 72 -49
130 -27 53 -68 151 -92 217 -23 66 -50 128 -59 138 -14 15 -60 25 -219 47
-229 32 -256 44 -293 127 -19 42 -19 61 -13 411 7 407 10 428 71 481 41 37 34
35 263 66 109 14 189 30 196 37 6 7 35 76 64 153 29 77 73 182 97 234 24 51
44 101 44 110 0 9 -56 85 -124 169 -144 178 -158 211 -135 297 9 33 57 86 282
312 149 150 286 280 303 288 43 20 122 19 156 -3 15 -9 97 -70 182 -135 173
-133 158 -129 259 -70 87 52 210 107 305 138 53 18 88 35 97 49 8 12 25 106
39 212 28 210 32 225 72 273 50 60 52 60 469 61 352 0 383 -1 415 -19z"/>
<path d="M4225 6670 c-347 -49 -636 -198 -883 -455 -207 -214 -345 -485 -398
-775 -26 -142 -24 -383 4 -525 62 -315 198 -571 422 -796 212 -213 453 -343
758 -412 142 -31 452 -31 599 1 830 180 1338 960 1167 1790 -90 436 -414 843
-824 1036 -210 98 -373 135 -615 141 -93 2 -197 0 -230 -5z m968 -719 c16 -10
76 -65 133 -121 112 -112 126 -138 104 -205 -13 -41 -113 -146 -725 -767 -445
-450 -432 -440 -522 -423 -33 6 -74 42 -287 253 -136 136 -281 285 -322 331
-71 80 -74 85 -74 134 l0 50 118 119 c133 136 158 153 215 145 35 -5 58 -23
202 -166 89 -89 166 -161 172 -161 6 0 190 182 410 405 220 222 410 409 424
414 42 17 121 13 152 -8z"/>
</g>
</svg>
